{"title":"I Me Aur Mein 2013 Scam (IcTv) - Hindi","uid":8207028,"size":737249280,"categoryP":"video","categoryS":"movies","magnet":"?xt=urn:btih:172298d242be7d5bb26a973b792d1732b4c58a40&amp;dn=I+Me+Aur+Mein+2013+Scam+%28IcTv%29+-+Hindi&amp;tr=udp%3A%2F%2Ftracker.openbittorrent.com%3A80&amp;tr=udp%3A%2F%2Fopen.demonii.com%3A1337&amp;tr=udp%3A%2F%2Ftracker.coppersurfer.tk%3A6969&amp;tr=udp%3A%2F%2Fexodus.desync.com%3A6969","seeders":1,"leechers":0,"uploader":"SJonam","files":7,"time":1362151322,"description":" &lt;a href=&quot;http://desibbrg.org/images/02024645020904080368.jpg&quot; rel=&quot;nofollow&quot; target=&quot;_NEW&quot;&gt;http://desibbrg.org/images/02024645020904080368.jpg&lt;/a&gt; &lt;a href=&quot;\nhttp://desibbrg.org/images/48679432020523129992.jpg&quot; rel=&quot;nofollow&quot; target=&quot;_NEW&quot;&gt;\nhttp://desibbrg.org/images/48679432020523129992.jpg&lt;/a&gt; &lt;a href=&quot;\nhttp://desibbrg.org/images/86426675277334401599.jpg&quot; rel=&quot;nofollow&quot; target=&quot;_NEW&quot;&gt;\nhttp://desibbrg.org/images/86426675277334401599.jpg&lt;/a&gt; &lt;a href=&quot;\nhttp://desibbrg.org/images/00715077536926298429.jpg&quot; rel=&quot;nofollow&quot; target=&quot;_NEW&quot;&gt;\nhttp://desibbrg.org/images/00715077536926298429.jpg&lt;/a&gt; &lt;a href=&quot;\nhttp://desibbrg.org/images/61105811206004388610.jpg&quot; rel=&quot;nofollow&quot; target=&quot;_NEW&quot;&gt;\nhttp://desibbrg.org/images/61105811206004388610.jpg&lt;/a&gt;\n\nMedia Info - \nGeneral\nFormat : MPEG-PS\nFile size : 703 MiB\nDuration : 1h 33mn\nOverall bit rate mode : Variable\nOverall bit rate : 1 047 Kbps\n\nVideo\nID : 224 (0xE0)\nFormat : MPEG Video\nFormat version : Version 2\nFormat profile : Main@Main\nFormat settings, BVOP : Yes\nFormat settings, Matrix : Default\nFormat settings, GOP : M=3, N=13\nDuration : 1h 33mn\nBit rate mode : Variable\nBit rate : 898 Kbps\nMaximum bit rate : 9 672 Kbps\nWidth : 720 pixels\nHeight : 576 pixels\nDisplay aspect ratio : 4:3\nFrame rate : 25.000 fps\nStandard : PAL\nColor space : YUV\nChroma subsampling : 4:2:0\nBit depth : 8 bits\nScan type : Progressive\nCompression mode : Lossy\nBits/(Pixel*Frame) : 0.087\nStream size : 603 MiB (86%)\n\nAudio\nID : 192 (0xC0)\nFormat : MPEG Audio\nFormat version : Version 1\nFormat profile : Layer 2\nDuration : 1h 33mn\nBit rate mode : Constant\nBit rate : 128 Kbps\nChannel(s) : 2 channels\nSampling rate : 48.0 KHz\nCompression mode : Lossy\nStream size : 85.9 MiB (12%)\n\nRipper : Master Mind\n\nSeeding 24x7... Extreme Seeding...\n\n\nEnjoy!\n","torrent":{"xt":"urn:btih:172298d242be7d5bb26a973b792d1732b4c58a40","amp;dn":"I+Me+Aur+Mein+2013+Scam+%28IcTv%29+-+Hindi","amp;tr":["udp%3A%2F%2Ftracker.openbittorrent.com%3A80","udp%3A%2F%2Fopen.demonii.com%3A1337","udp%3A%2F%2Ftracker.coppersurfer.tk%3A6969","udp%3A%2F%2Fexodus.desync.com%3A6969"],"infoHash":"172298d242be7d5bb26a973b792d1732b4c58a40","infoHashBuffer":{"type":"Buffer","data":[23,34,152,210,66,190,125,91,178,106,151,59,121,45,23,50,180,197,138,64]},"announce":[],"urlList":[]}}